# File created by Blade
# Date/Time:  Thu Jan 22 19:13:21 2015
#---------------------------------------------------------
:version 1.10
:name HOM
:units
  mass 1.0
  length 1.000000
  angle deg
:documentation
     Acclaim Skeleton File
:root
   axis xyz
   order TX TY TZ RX RY RZ
   position 0.000000 0.000000 0.000000
   orientation 0 0 0
:bonedata
   begin
      id 1
      name RightUpLeg_dum
      direction -1.000000 0.000000 0.000000
      length 4.478084
      axis 0.0 0.0 0.0 xyz
   end
   begin
      id 2
      name LeftUpLeg_dum
      direction 1.000000 0.000000 0.000000
      length 4.478084
      axis 0.0 0.0 0.0 xyz
   end
   begin
      id 3
      name Spine_dum
      direction 0.000000 1.000000 0.000000
      length 6.068208
      axis 0.0 0.0 0.0 xyz
   end
   begin
      id 4
      name RightUpLeg
      direction 0.000000 -1.000000 0.000000
      length 16.405774
      axis 0.0 0.0 0.0 xyz
      dof rx ry rz
   end
   begin
      id 5
      name RightLeg
      direction 0.000000 -1.000000 0.000000
      length 14.644143
      axis 0.0 0.0 0.0 xyz
      dof rx ry rz
   end
   begin
      id 6
      name RightFoot
      direction 0.000000 -0.258819 0.965926
      length 5.806150
      axis 15.0 0.0 0.0 xyz
      dof rx ry rz
   end
   begin
      id 7
      name RightToeBase
      direction 0.000000 0.000000 1.000000
      length 2.952750
      axis 0.0 0.0 0.0 xyz
      dof rx ry rz
   end
   begin
      id 8
      name LeftUpLeg
      direction 0.000000 -1.000000 0.000000
      length 16.405774
      axis 0.0 0.0 0.0 xyz
      dof rx ry rz
   end
   begin
      id 9
      name LeftLeg
      direction 0.000000 -1.000000 0.000000
      length 14.644143
      axis 0.0 0.0 0.0 xyz
      dof rx ry rz
   end
   begin
      id 10
      name LeftFoot
      direction 0.000000 -0.258819 0.965926
      length 5.806150
      axis 15.0 0.0 0.0 xyz
      dof rx ry rz
   end
   begin
      id 11
      name LeftToeBase
      direction 0.000000 0.000000 1.000000
      length 2.952750
      axis 0.0 0.0 0.0 xyz
      dof rx ry rz
   end
   begin
      id 12
      name Spine
      direction 0.000000 1.000000 0.000000
      length 0.000000
      axis 0.0 0.0 0.0 xyz
      dof rx ry rz
   end
   begin
      id 13
      name Spine_dum1
      direction 0.000000 1.000000 0.000000
      length 10.013923
      axis 0.0 0.0 0.0 xyz
   end
   begin
      id 14
      name Spine_dum2
      direction 0.000000 1.000000 0.000000
      length 10.013923
      axis 0.0 0.0 0.0 xyz
   end
   begin
      id 15
      name Spine_dum3
      direction 0.000000 1.000000 0.000000
      length 15.777476
      axis 0.0 0.0 0.0 xyz
   end
   begin
      id 16
      name RightShoulder
      direction -1.000000 0.000000 0.000000
      length 7.190220
      axis 0.0 0.0 90.0 xyz
      dof rx ry rz
   end
   begin
      id 17
      name RightArm
      direction -1.000000 0.000000 0.000000
      length 10.177469
      axis 0.0 0.0 90.0 xyz
      dof rx ry rz
   end
   begin
      id 18
      name RightForeArm
      direction -1.000000 0.000000 0.000000
      length 8.392114
      axis 0.0 0.0 90.0 xyz
      dof ry rz rx
   end
   begin
      id 19
      name RightHand
      direction -1.000000 0.000000 0.000000
      length 0.000000
      axis 0.0 0.0 90.0 xyz
      dof rx ry rz
   end
   begin
      id 20
      name RightHand_dum1
      direction -1.000000 0.000000 0.000000
      length 3.937000
      axis 0.0 0.0 90.0 xyz
   end
   begin
      id 21
      name RightHand_dum2
      direction 0.000000 0.000000 0.000000
      length 0.000000
      axis 0.0 0.0 90.0 xyz
   end
   begin
      id 22
      name RightHandThumb1
      direction 0.000000 0.000000 1.000000
      length 3.937000
      axis 0.0 0.0 90.0 xyz
      dof rx rz ry
   end
   begin
      id 23
      name LeftShoulder
      direction 1.000000 0.000000 0.000000
      length 7.190220
      axis 0.0 0.0 -90.0 xyz
      dof rx ry rz
   end
   begin
      id 24
      name LeftArm
      direction 1.000000 0.000000 0.000000
      length 10.177469
      axis 0.0 0.0 -90.0 xyz
      dof rx ry rz
   end
   begin
      id 25
      name LeftForeArm
      direction 1.000000 0.000000 0.000000
      length 8.392114
      axis 0.0 0.0 -90.0 xyz
      dof ry rz rx
   end
   begin
      id 26
      name LeftHand
      direction 1.000000 0.000000 0.000000
      length 0.000000
      axis 0.0 0.0 -90.0 xyz
      dof rx ry rz
   end
   begin
      id 27
      name LeftHand_dum1
      direction 1.000000 0.000000 0.000000
      length 3.937000
      axis 0.0 0.0 -90.0 xyz
   end
   begin
      id 28
      name LeftHand_dum2
      direction 0.000000 0.000000 0.000000
      length 0.000000
      axis 0.0 0.0 -90.0 xyz
   end
   begin
      id 29
      name LeftHandThumb1
      direction 0.000000 0.000000 1.000000
      length 3.937000
      axis 0.0 0.0 -90.0 xyz
      dof rx rz ry
   end
   begin
      id 30
      name Head
      direction 0.000000 1.000000 0.000000
      length 4.527550
      axis 0.0 0.0 0.0 xyz
      dof rx ry rz
   end
:hierarchy
   begin
      root RightUpLeg_dum LeftUpLeg_dum Spine_dum
      RightUpLeg_dum RightUpLeg
      LeftUpLeg_dum LeftUpLeg
      Spine_dum Spine
      RightUpLeg RightLeg
      RightLeg RightFoot
      RightFoot RightToeBase
      LeftUpLeg LeftLeg
      LeftLeg LeftFoot
      LeftFoot LeftToeBase
      Spine Spine_dum1 Spine_dum2 Spine_dum3
      Spine_dum1 RightShoulder
      Spine_dum2 LeftShoulder
      Spine_dum3 Head
      RightShoulder RightArm
      RightArm RightForeArm
      RightForeArm RightHand
      RightHand RightHand_dum1 RightHand_dum2
      RightHand_dum2 RightHandThumb1
      LeftShoulder LeftArm
      LeftArm LeftForeArm
      LeftForeArm LeftHand
      LeftHand LeftHand_dum1 LeftHand_dum2
      LeftHand_dum2 LeftHandThumb1
   end

# File created by Blade
# Date/Time:  Thu Jan 22 19:13:14 2015
# Frame Rate: 120.000 fps
#------------------------------------------------------
:FULLY-SPECIFIED
:DEGREES
367
root 4.424651 31.296937 -2.137244 16.215192 -12.226260 8.244720
RightUpLeg -25.340476 -50.629018 -3.630957
RightLeg -9.728625 -0.000000 0.000000
RightFoot 9.024473 -11.740376 7.137395
RightToeBase 7.887851 -0.000000 -0.000000
LeftUpLeg -12.639635 22.126961 6.128126
LeftLeg 4.761159 -0.000000 -0.000000
LeftFoot -10.452555 3.959703 -21.289326
LeftToeBase -7.664926 -0.000000 0.000000
Spine -7.101985 1.731377 8.134353
RightShoulder -15.597586 -14.056387 -26.593301
RightArm 22.918954 32.511259 51.663857
RightForeArm 3.551158 -0.000000 16.434167
RightHand 14.194817 -0.000000 8.252298
RightHandThumb1 -24.326973 -0.000000 -32.862282
LeftShoulder -24.922948 11.799931 22.797300
LeftArm 16.181214 -27.409955 -43.738343
LeftForeArm 19.440661 -0.000000 1.799663
LeftHand 0.156463 0.000000 -6.167732
LeftHandThumb1 -26.253704 0.000000 33.147579
Head 9.124340 -0.543702 -9.367029
368
root 4.433814 31.289854 -2.133327 16.165103 -11.957188 8.338903
RightUpLeg -25.027208 -50.930055 -3.820755
RightLeg -9.998235 -0.000000 0.000000
RightFoot 9.046666 -11.690950 7.425787
RightToeBase 7.988484 -0.000000 -0.000000
LeftUpLeg -12.700795 21.977765 6.053889
LeftLeg 4.756986 -0.000000 -0.000000
LeftFoot -10.236722 4.022361 -21.367119
LeftToeBase -7.186301 -0.000000 0.000000
Spine -6.980791 1.713124 8.527371
RightShoulder -15.628657 -13.987823 -26.575719
RightArm 22.853714 32.743750 51.922432
RightForeArm 3.786458 -0.000000 16.426427
RightHand 14.152424 -0.000000 8.268080
RightHandThumb1 -24.326973 -0.000000 -32.862282
LeftShoulder -24.839042 11.461038 23.007018
LeftArm 15.859780 -27.408639 -43.589267
LeftForeArm 19.457888 -0.000000 1.657695
LeftHand 0.150361 0.000000 -6.379987
LeftHandThumb1 -26.253704 0.000000 33.147579
Head 9.102241 -0.718374 -9.504456
369
root 4.443654 31.284587 -2.130860 16.152303 -11.760957 8.453420
RightUpLeg -24.765485 -51.109836 -4.031169
RightLeg -10.258984 -0.000000 0.000000
RightFoot 9.045738 -11.657209 7.698475
RightToeBase 8.134821 -0.000000 -0.000000
LeftUpLeg -12.797998 21.791939 5.944735
LeftLeg 4.785230 -0.000000 -0.000000
LeftFoot -10.092855 3.997085 -21.205384
LeftToeBase -7.155409 -0.000000 0.000000
Spine -6.905819 1.759998 8.867072
RightShoulder -15.709690 -14.004023 -26.506792
RightArm 22.994119 33.034874 52.281757
RightForeArm 3.942762 -0.000000 16.315986
RightHand 14.293166 -0.000000 8.429103
RightHandThumb1 -24.326973 -0.000000 -32.862282
LeftShoulder -24.796041 11.484575 23.101974
LeftArm 15.770758 -27.607942 -43.578719
LeftForeArm 19.670689 -0.000000 1.637392
LeftHand 0.149916 0.000000 -6.480378
LeftHandThumb1 -26.253704 0.000000 33.147579
Head 9.102640 -0.905743 -9.601461
370
root 4.452731 31.279659 -2.131000 16.188553 -11.650238 8.574485
RightUpLeg -24.668245 -51.254203 -4.159758
RightLeg -10.442893 -0.000000 0.000000
RightFoot 9.036271 -11.568772 7.948887
RightToeBase 7.943254 -0.000000 -0.000000
LeftUpLeg -12.946728 21.571121 5.817531
LeftLeg 4.865720 -0.000000 -0.000000
LeftFoot -9.992308 4.033551 -21.067427
LeftToeBase -7.364480 -0.000000 0.000000
Spine -6.868394 1.918450 9.146233
RightShoulder -15.798492 -13.954601 -26.411672
RightArm 22.972688 33.155370 52.501346
RightForeArm 4.395002 -0.000000 16.256452
RightHand 14.369385 -0.000000 8.475919
RightHandThumb1 -24.326973 -0.000000 -32.862282
LeftShoulder -24.703546 11.371898 23.259939
LeftArm 15.559843 -27.662403 -43.427731
LeftForeArm 19.693832 0.000000 1.597312
LeftHand 0.215028 -0.000000 -6.563090
LeftHandThumb1 -26.253704 0.000000 33.147579
Head 9.067998 -1.102957 -9.621245
371
root 4.458828 31.274926 -2.129115 16.241261 -11.632167 8.676035
RightUpLeg -24.613145 -51.288026 -4.267756
RightLeg -10.609938 -0.000000 0.000000
RightFoot 9.029095 -11.435244 8.129411
RightToeBase 7.986044 -0.000000 -0.000000
LeftUpLeg -13.088304 21.344470 5.721178
LeftLeg 4.990847 -0.000000 -0.000000
LeftFoot -9.962448 4.146036 -21.406105
LeftToeBase -7.016664 -0.000000 0.000000
Spine -6.834301 2.132624 9.410248
RightShoulder -15.863896 -13.927935 -26.305314
RightArm 22.872521 33.142033 52.659952
RightForeArm 4.897045 -0.000000 16.328283
RightHand 14.388045 -0.000000 8.669617
RightHandThumb1 -24.326973 -0.000000 -32.862282
LeftShoulder -24.660819 11.349917 23.412330
LeftArm 15.402276 -27.688332 -43.274669
LeftForeArm 19.741515 -0.000000 1.554962
LeftHand 0.266988 -0.000000 -6.603637
LeftHandThumb1 -26.253704 0.000000 33.147579
Head 9.015087 -1.274557 -9.597560
372
root 4.461709 31.270499 -2.125665 16.294480 -11.683762 8.757438
RightUpLeg -24.539394 -51.228548 -4.385767
RightLeg -10.820257 -0.000000 0.000000
RightFoot 9.092999 -11.364331 8.330224
RightToeBase 7.941706 -0.000000 -0.000000
LeftUpLeg -13.218271 21.134102 5.672200
LeftLeg 5.139644 -0.000000 -0.000000
LeftFoot -9.892375 4.318646 -22.025340
LeftToeBase -6.651975 -0.000000 0.000000
Spine -6.786465 2.351761 9.678105
RightShoulder -15.877730 -13.886226 -26.202264
RightArm 22.867364 33.194673 52.885482
RightForeArm 5.447913 -0.000000 16.285126
RightHand 14.548182 -0.000000 8.722751
RightHandThumb1 -24.326973 -0.000000 -32.862282
LeftShoulder -24.669582 11.418170 23.519318
LeftArm 15.317112 -27.942167 -43.172015
LeftForeArm 19.815360 -0.000000 1.492964
LeftHand 0.291739 -0.000000 -6.552783
LeftHandThumb1 -26.253704 0.000000 33.147579
Head 8.940123 -1.431014 -9.568472
373
root 4.466668 31.266481 -2.124099 16.367701 -11.816702 8.845323
RightUpLeg -24.573313 -51.074355 -4.491984
RightLeg -10.943213 -0.000000 0.000000
RightFoot 9.137337 -11.329149 8.419378
RightToeBase 7.849005 -0.000000 -0.000000
LeftUpLeg -13.360055 20.923946 5.612684
LeftLeg 5.298679 -0.000000 -0.000000
LeftFoot -9.822918 4.624909 -22.777102
LeftToeBase -6.062342 -0.000000 0.000000
Spine -6.738426 2.663747 9.923201
RightShoulder -15.939114 -13.958469 -26.109589
RightArm 23.384082 34.099140 53.826267
RightForeArm 5.098586 0.000000 16.132069
RightHand 14.717024 0.000000 9.097710
RightHandThumb1 -24.326973 -0.000000 -32.862282
LeftShoulder -24.659252 11.323995 23.685499
LeftArm 15.115622 -27.932700 -42.905578
LeftForeArm 19.737318 -0.000000 1.347852
LeftHand 0.427076 -0.000000 -6.601058
LeftHandThumb1 -26.253704 0.000000 33.147579
Head 8.831243 -1.582535 -9.545487
374
root 4.472089 31.261635 -2.124332 16.463245 -12.040747 8.919870
RightUpLeg -24.767085 -50.873461 -4.514531
RightLeg -10.961090 -0.000000 0.000000
RightFoot 9.149543 -11.245269 8.517603
RightToeBase 7.785529 -0.000000 -0.000000
LeftUpLeg -13.509513 20.858354 5.533011
LeftLeg 5.435431 -0.000000 -0.000000
LeftFoot -9.751877 4.934570 -23.505618
LeftToeBase -5.164266 -0.000000 0.000000
Spine -6.696689 3.009584 10.172052
RightShoulder -15.926673 -13.982383 -26.065825
RightArm 23.582709 34.474691 54.386723
RightForeArm 5.148072 -0.000000 16.138703
RightHand 14.842752 -0.000000 9.406295
RightHandThumb1 -24.326973 -0.000000 -32.862282
LeftShoulder -24.675974 11.469372 23.759780
LeftArm 15.006512 -28.220840 -42.727520
LeftForeArm 19.709973 -0.000000 1.349936
LeftHand 0.372887 -0.000000 -6.727299
LeftHandThumb1 -26.253704 0.000000 33.147579
Head 8.731111 -1.641898 -9.575050
375
root 4.480570 31.256232 -2.123936 16.538223 -12.313143 8.974171
RightUpLeg -25.003404 -50.665460 -4.511519
RightLeg -10.922413 -0.000000 0.000000
RightFoot 9.152602 -11.130049 8.533265
RightToeBase 7.828367 -0.000000 -0.000000
LeftUpLeg -13.627321 20.859239 5.475770
LeftLeg 5.573854 -0.000000 -0.000000
LeftFoot -9.628307 5.205165 -24.588389
LeftToeBase -4.092647 -0.000000 0.000000
Spine -6.568663 3.389523 10.441350
RightShoulder -15.909767 -13.889485 -26.010118
RightArm 23.509463 34.369227 54.556679
RightForeArm 5.903524 -0.000000 16.181910
RightHand 14.915187 -0.000000 9.391898
RightHandThumb1 -24.326973 -0.000000 -32.862282
LeftShoulder -24.693868 11.420280 23.900221
LeftArm 14.758432 -28.214045 -42.382086
LeftForeArm 19.634727 -0.000000 1.198772
LeftHand 0.540856 0.000000 -6.733500
LeftHandThumb1 -26.253704 0.000000 33.147579
Head 8.465089 -1.736346 -9.545566
376
root 4.490151 31.251240 -2.123902 16.628485 -12.636297 9.018296
RightUpLeg -25.335846 -50.445351 -4.443805
RightLeg -10.839448 -0.000000 0.000000
RightFoot 9.137409 -11.019295 8.672830
RightToeBase 7.934323 -0.000000 -0.000000
LeftUpLeg -13.739574 20.934259 5.415175
LeftLeg 5.678953 -0.000000 -0.000000
LeftFoot -9.467657 5.542739 -25.751385
LeftToeBase -2.417450 -0.000000 0.000000
Spine -6.439284 3.752694 10.731626
RightShoulder -15.812585 -13.762212 -25.983100
RightArm 23.492145 34.458202 54.827922
RightForeArm 6.220957 -0.000000 16.241525
RightHand 14.998621 -0.000000 9.442381
RightHandThumb1 -24.326973 -0.000000 -32.862282
LeftShoulder -24.815100 11.547591 23.905015
LeftArm 14.717240 -28.421649 -42.081835
LeftForeArm 19.665005 -0.000000 1.005524
LeftHand 0.526020 -0.000000 -6.782378
LeftHandThumb1 -26.253704 0.000000 33.147579
Head 8.193403 -1.729591 -9.577786
377
root 4.503889 31.246892 -2.124104 16.687667 -12.984669 9.078207
RightUpLeg -25.674626 -50.218534 -4.408591
RightLeg -10.710679 -0.000000 0.000000
RightFoot 9.161258 -10.842249 8.626163
RightToeBase 7.941970 -0.000000 -0.000000
LeftUpLeg -13.796773 21.074571 5.335928
LeftLeg 5.699053 -0.000000 -0.000000
LeftFoot -9.201535 5.918248 -27.046313
LeftToeBase -0.419778 -0.000000 0.000000
Spine -6.251934 4.119769 11.024153
RightShoulder -15.707373 -13.648516 -25.972222
RightArm 23.488855 34.584761 55.145340
RightForeArm 6.536996 -0.000000 16.375322
RightHand 15.034936 0.000000 9.340397
RightHandThumb1 -24.326973 -0.000000 -32.862282
LeftShoulder -24.863442 11.488401 24.013895
LeftArm 14.377829 -28.392140 -41.687155
LeftForeArm 19.425644 -0.000000 0.963620
LeftHand 0.366295 -0.000000 -6.614744
LeftHandThumb1 -26.253704 0.000000 33.147579
Head 7.891920 -1.777118 -9.620960
378
root 4.520621 31.241774 -2.122988 16.709874 -13.317006 9.140003
RightUpLeg -26.004465 -50.076399 -4.357781
RightLeg -10.582365 -0.000000 0.000000
RightFoot 9.188587 -10.599341 8.621687
RightToeBase 8.104862 -0.000000 -0.000000
LeftUpLeg -13.805080 21.236564 5.262251
LeftLeg 5.692100 -0.000000 -0.000000
LeftFoot -9.054306 6.165271 -28.353207
LeftToeBase 1.764978 -0.000000 -0.000000
Spine -6.001250 4.452102 11.345949
RightShoulder -15.582997 -13.495248 -25.953608
RightArm 23.454198 34.619889 55.329947
RightForeArm 6.996152 -0.000000 16.457440
RightHand 15.147727 -0.000000 9.380701
RightHandThumb1 -24.326973 -0.000000 -32.862282
LeftShoulder -24.959016 11.601591 24.030206
LeftArm 14.228673 -28.551449 -41.354464
LeftForeArm 19.251843 0.000000 0.878050
LeftHand 0.144318 0.000000 -6.703128
LeftHandThumb1 -26.253704 0.000000 33.147579
Head 7.530293 -1.810536 -9.698362
379
root 4.547257 31.237374 -2.120694 16.708942 -13.685856 9.277297
RightUpLeg -26.372502 -49.939001 -4.391841
RightLeg -10.407416 -0.000000 0.000000
RightFoot 9.211067 -10.339622 8.670402
RightToeBase 8.244504 -0.000000 -0.000000
LeftUpLeg -13.772929 21.404691 5.081752
LeftLeg 5.629780 -0.000000 -0.000000
LeftFoot -8.851048 6.269846 -29.169750
LeftToeBase 3.751375 -0.000000 -0.000000
Spine -5.725902 4.757619 11.619716
RightShoulder -15.468033 -13.379882 -25.992014
RightArm 23.623237 34.910413 55.796100
RightForeArm 6.864722 -0.000000 16.551125
RightHand 15.165725 -0.000000 9.466531
RightHandThumb1 -24.326973 -0.000000 -32.862282
LeftShoulder -25.037627 11.594203 24.116534
LeftArm 13.944588 -28.553245 -40.931057
LeftForeArm 18.967128 -0.000000 0.690438
LeftHand 0.079071 -0.000000 -6.877046
LeftHandThumb1 -26.253704 0.000000 33.147579
Head 7.138610 -1.806124 -9.813886
